<svg width="62" height="62" viewBox="0 0 62 62" fill="none" xmlns="http://www.w3.org/2000/svg">
<path d="M60.2256 31.1127C60.2256 15.0711 47.1546 2 31.1129 2C15.0712 2 2.00024 15.0711 2.00024 31.1127C2.00024 47.1544 15.0712 60.2254 31.1129 60.2254C47.1546 60.2254 60.2256 47.1544 60.2256 31.1127Z" stroke="white" stroke-width="3" stroke-miterlimit="10" stroke-linecap="round" stroke-linejoin="round"/>
<path d="M39.2824 35.7173C39.2824 37.4998 38.6883 38.9851 37.3515 40.0249C36.0147 41.0646 34.2323 41.8072 31.8557 42.1043V46.8574H30.2219V42.2529C29.0336 42.2529 27.6968 42.1043 26.2114 41.8072C24.7261 41.5101 23.6864 41.2131 22.7952 40.7675V38.688C23.8349 39.1336 25.0231 39.5792 26.3599 39.8763C27.6967 40.1734 29.0336 40.3219 30.2219 40.3219V30.2216C28.2909 29.6274 26.9541 29.0333 25.9143 28.4391C25.0231 27.845 24.2805 27.1024 23.8349 26.3597C23.3893 25.617 23.2408 24.5773 23.2408 23.389C23.2408 21.7552 23.8349 20.4184 25.1717 19.2301C26.3599 18.0418 28.1424 17.4477 30.2219 17.1506V13.2887H31.8557V17.0021C34.5293 17.1506 36.7574 17.5962 38.8368 18.4874L38.2427 20.2698C36.3117 19.3786 34.2323 18.933 32.0043 18.7844V28.4391C34.8264 29.3303 36.7573 30.2216 37.7971 31.2613C38.6883 32.7467 39.2824 34.0835 39.2824 35.7173ZM25.4688 23.6861C25.4688 24.8744 25.9143 25.7655 26.657 26.5082C27.3997 27.2509 28.588 27.845 30.2219 28.2906V19.2301C28.588 19.3786 27.3997 19.9728 26.657 20.7154C25.9143 21.6066 25.4688 22.4978 25.4688 23.6861ZM37.0544 35.7173C37.0544 34.5291 36.6088 33.6378 35.8661 32.8952C34.9749 32.1525 33.6381 31.5584 31.8557 30.9642V40.3219C33.4896 40.1733 34.6779 39.7277 35.7176 38.8365C36.6089 38.0939 37.0544 36.9056 37.0544 35.7173Z" fill="white"/>
<path d="M31.1129 60.2254C47.1914 60.2254 60.2256 47.1912 60.2256 31.1127C60.2256 15.0342 47.1914 2 31.1129 2C15.0344 2 2.00024 15.0342 2.00024 31.1127C2.00024 47.1912 15.0344 60.2254 31.1129 60.2254Z" stroke="white" stroke-width="3" stroke-miterlimit="10"/>
</svg>
